<svg width="238" height="238" viewBox="0 0 238 238" fill="none" xmlns="http://www.w3.org/2000/svg">
<rect width="238" height="238" fill="white"/>
<path d="M0 0V238H238V0H0ZM144.129 194.268C140.103 195.041 138.833 192.572 138.833 190.459V168.692C138.833 161.285 136.235 156.465 133.379 154.006C151.051 152.042 169.615 145.329 169.615 114.865C169.615 106.198 166.531 99.1171 161.443 93.5737C162.266 91.5705 164.984 83.4983 160.66 72.5801C160.66 72.5801 154.006 70.448 138.863 80.7118C132.526 78.9268 125.743 78.064 119 78.0243C112.257 78.0541 105.474 78.9268 99.1369 80.6919C83.9843 70.4282 77.3203 72.5603 77.3203 72.5603C73.0164 83.4884 75.7336 91.5507 76.5567 93.5638C71.4793 99.1171 68.3853 106.188 68.3853 114.855C68.3853 145.24 86.8998 152.052 104.532 154.065C102.261 156.049 100.208 159.539 99.4939 164.676C94.962 166.699 83.4884 170.2 76.4079 158.072C76.4079 158.072 72.2132 150.456 64.2402 149.89C64.2402 149.89 56.5052 149.791 63.6948 154.72C63.6948 154.72 68.901 157.159 72.5107 166.322C72.5107 166.322 77.1021 180.483 99.1667 175.684V190.45C99.1667 192.542 97.8874 195.001 93.9307 194.268C62.3957 183.786 39.6667 154.046 39.6667 119C39.6667 75.1783 75.1882 39.6667 119 39.6667C162.812 39.6667 198.333 75.1783 198.333 119C198.333 154.036 175.634 183.766 144.129 194.268V194.268Z" fill="#343A40"/>
</svg>
