<svg width="236" height="236" viewBox="0 0 236 236" fill="none" xmlns="http://www.w3.org/2000/svg">
<rect width="236" height="236" fill="white"/>
<path d="M0 0V236H236V0H0ZM78.6667 186.833H49.1667V78.6667H78.6667V186.833ZM63.9167 66.198C54.4177 66.198 46.7083 58.4297 46.7083 48.852C46.7083 39.2743 54.4177 31.506 63.9167 31.506C73.4157 31.506 81.125 39.2743 81.125 48.852C81.125 58.4297 73.4255 66.198 63.9167 66.198ZM196.667 186.833H167.167V131.727C167.167 98.6087 127.833 101.116 127.833 131.727V186.833H98.3333V78.6667H127.833V96.0225C141.57 70.5935 196.667 68.7153 196.667 120.37V186.833Z" fill="#343A40"/>
</svg>
